<svg id="visual" viewBox="0 0 960 560" width="960" height="560" xmlns="http://www.w3.org/2000/svg" xmlns:xlink="http://www.w3.org/1999/xlink" version="1.1"><rect x="0" y="0" width="960" height="560" fill="#cddbff"></rect><path d="M0 193L40 189.3C80 185.7 160 178.3 240 184C320 189.7 400 208.3 480 239.3C560 270.3 640 313.7 720 318.7C800 323.7 880 290.3 920 273.7L960 257L960 561L920 561C880 561 800 561 720 561C640 561 560 561 480 561C400 561 320 561 240 561C160 561 80 561 40 561L0 561Z" fill="#d8e1ff" stroke-linecap="round" stroke-linejoin="miter"></path></svg>